# xmcd
#
# Track frame offsets:
#	150
#	14702
#	30601
#	42666
#	54692
#	68869
#	84008
#	97323
#	109049
#	123581
#	134735
#	146516
#	158854
#	173059
#	184781
#	196349
#
# Disc length: 2789 seconds
#
# Revision: 0
# Processed by: cddbd v1.5.1PL2 Copyright (c) Steve Scherf et al.
# Submitted via: EasyCDDAExtractor 4.6.9.1
#
DISCID=eb0ae310
DTITLE=Jeanne Pruett - Welcome To The Sunshine
DYEAR=1979
DGENRE=Country
TTITLE0=Honey On His Hands
TTITLE1=A Poor Man's Woman
TTITLE2=Can You Think Of Anything Better
TTITLE3=But Not Today
TTITLE4=Momma Let Me Find Shelter
TTITLE5=Just Like Your Daddy
TTITLE6=Sweet Sorrow
TTITLE7=Driftin' Too Far Apart
TTITLE8=Welcome To The Sunshine
TTITLE9=One Of These Days
TTITLE10=My First Payday
TTITLE11=All Over Me
TTITLE12=My Baby's Gone
TTITLE13=It Doesn't Hurt To Ask
TTITLE14=If I'm Not Girl Enough To Hold You
TTITLE15=I Can't Keep My Hands Off Of You
EXTD=
EXTT0=
EXTT1=
EXTT2=
EXTT3=
EXTT4=
EXTT5=
EXTT6=
EXTT7=
EXTT8=
EXTT9=
EXTT10=
EXTT11=
EXTT12=
EXTT13=
EXTT14=
EXTT15=
PLAYORDER=
